<?xml version="1.0" encoding="iso-8859-1"?>
<!-- Generator: Adobe Illustrator 19.0.0, SVG Export Plug-In . SVG Version: 6.00 Build 0)  -->
<svg version="1.1" id="Capa_1" xmlns="http://www.w3.org/2000/svg" xmlns:xlink="http://www.w3.org/1999/xlink" x="0px" y="0px"
	 viewBox="0 0 512.003 512.003" style="enable-background:new 0 0 512.003 512.003;" xml:space="preserve">
<g>
	<g>
		<g>
			<path d="M404.106,156.883l-45.705-99.027V17.067C358.392,7.645,350.757,0.009,341.335,0H170.668
				c-9.422,0.009-17.057,7.645-17.067,17.067v40.789l-45.705,99.028h0.004c-3.612,7.85-5.488,16.388-5.5,25.029V486.4
				c0.015,14.132,11.468,25.585,25.6,25.6h256c13.895,0.217,25.345-10.851,25.6-24.746V181.912
				C409.589,173.271,407.715,164.735,404.106,156.883z M349.869,80.099l37.864,82.034h-75.725L349.869,80.099z M170.668,17.067
				h170.667V51.2H170.668V17.067z M290.135,494.933H128.002c-4.71-0.006-8.527-3.823-8.533-8.533V256.432
				c43.577,4.432,76.746,41.099,76.8,84.901c0.082,53.2,40.855,97.492,93.867,101.967V494.933z M290.135,181.912v244.322
				c-43.577-4.432-76.746-41.099-76.8-84.901c-0.08-53.201-40.854-97.494-93.867-101.968v-57.453c0-0.904,0.09-1.808,0.149-2.712
				h170.667C290.242,180.105,290.135,181.008,290.135,181.912z M293.551,162.133H124.275l43.318-93.867h168.937l-40.896,88.617
				C294.846,158.591,294.174,160.353,293.551,162.133z M392.535,487.254c-0.254,4.469-4.063,7.897-8.533,7.679h-76.8v-50.826
				c28.085,1.792,54.88,12.441,76.533,30.417l8.8,7.336V487.254z M392.535,459.798c-24.348-19.524-54.175-30.974-85.333-32.757
				l0-245.129c0-0.904,0.09-1.808,0.149-2.712h85.035c0.059,0.905,0.149,1.808,0.149,2.712V459.798z"/>
			<path d="M221.868,76.8c-24.325,0-42.667,11.004-42.667,25.6V128c0,4.713,3.82,8.533,8.533,8.533s8.533-3.82,8.533-8.533v-4.944
				c16.43,6.592,34.77,6.592,51.2,0V128c0,4.713,3.82,8.533,8.533,8.533c4.713,0,8.533-3.82,8.533-8.533v-25.6
				C264.535,87.804,246.193,76.8,221.868,76.8z M221.868,110.933c-16.521,0-25.6-6.409-25.6-8.533c0-2.125,9.079-8.533,25.6-8.533
				c16.521,0,25.6,6.409,25.6,8.533C247.468,104.525,238.389,110.933,221.868,110.933z"/>
		</g>
	</g>
</g>
<g>
</g>
<g>
</g>
<g>
</g>
<g>
</g>
<g>
</g>
<g>
</g>
<g>
</g>
<g>
</g>
<g>
</g>
<g>
</g>
<g>
</g>
<g>
</g>
<g>
</g>
<g>
</g>
<g>
</g>
</svg>
